<svg width="187" height="40" viewBox="0 0 187 40" fill="none" xmlns="http://www.w3.org/2000/svg">
<path d="M173.295 30.0001C172.682 30.0001 172.255 29.8801 172.015 29.6401C171.802 29.4001 171.695 28.9734 171.695 28.3601V7.5201H165.415C164.802 7.5201 164.375 7.4001 164.135 7.1601C163.895 6.9201 163.775 6.50676 163.775 5.9201V3.2401C163.775 2.62676 163.895 2.2001 164.135 1.9601C164.375 1.7201 164.802 1.6001 165.415 1.6001H184.455C185.069 1.6001 185.482 1.7201 185.695 1.9601C185.935 2.2001 186.055 2.62676 186.055 3.2401V5.9201C186.055 6.50676 185.935 6.9201 185.695 7.1601C185.482 7.4001 185.069 7.5201 184.455 7.5201H178.175V28.3601C178.175 28.9734 178.055 29.4001 177.815 29.6401C177.575 29.8801 177.149 30.0001 176.535 30.0001H173.295Z" fill="url(#paint0_linear_903_4792)"/>
<path d="M154.511 29.84C153.098 30.3467 151.418 30.6 149.471 30.6C145.711 30.6 142.791 29.6533 140.711 27.76C138.658 25.84 137.631 23.2 137.631 19.84V11.76C137.631 8.4 138.658 5.77333 140.711 3.88C142.791 1.96 145.711 1 149.471 1C153.204 1 156.098 1.96 158.151 3.88C160.231 5.77333 161.271 8.4 161.271 11.76V19.84C161.271 22.4533 160.644 24.6267 159.391 26.36L161.631 29C161.978 29.4267 162.151 29.8 162.151 30.12C162.151 30.4933 161.911 30.8933 161.431 31.32L159.311 33C158.858 33.3733 158.484 33.56 158.191 33.56C157.818 33.56 157.431 33.3067 157.031 32.8L154.511 29.84ZM144.151 20C144.151 21.52 144.604 22.68 145.511 23.48C146.444 24.28 147.764 24.68 149.471 24.68C151.178 24.68 152.484 24.28 153.391 23.48C154.324 22.68 154.791 21.52 154.791 20V11.6C154.791 10.08 154.324 8.92 153.391 8.12C152.484 7.32 151.178 6.92 149.471 6.92C147.764 6.92 146.444 7.32 145.511 8.12C144.604 8.92 144.151 10.08 144.151 11.6V20Z" fill="url(#paint1_linear_903_4792)"/>
<path d="M116.968 30.0001C116.408 30.0001 116.022 29.8934 115.808 29.6801C115.595 29.4668 115.488 29.0801 115.488 28.5201V12.3601C115.488 11.6934 115.595 11.2134 115.808 10.9201C116.022 10.6001 116.448 10.3068 117.088 10.0401C119.462 9.0801 122.182 8.6001 125.248 8.6001C128.155 8.6001 130.315 9.3201 131.728 10.7601C133.168 12.1734 133.888 14.2134 133.888 16.8801V28.5201C133.888 29.0801 133.782 29.4668 133.568 29.6801C133.355 29.8934 132.982 30.0001 132.448 30.0001H129.328C128.795 30.0001 128.408 29.8934 128.168 29.6801C127.955 29.4668 127.848 29.0801 127.848 28.5201V17.0801C127.848 16.0401 127.568 15.2801 127.008 14.8001C126.448 14.3201 125.595 14.0801 124.448 14.0801C123.488 14.0801 122.555 14.1868 121.648 14.4001C121.568 14.4801 121.528 14.5334 121.528 14.5601V28.5201C121.528 29.0801 121.422 29.4668 121.208 29.6801C120.995 29.8934 120.608 30.0001 120.048 30.0001H116.968Z" fill="url(#paint2_linear_903_4792)"/>
<path d="M102.417 30.6001C99.1374 30.6001 96.7241 29.8001 95.1774 28.2001C93.6308 26.5734 92.8574 24.4134 92.8574 21.7201V17.4801C92.8574 14.6001 93.6841 12.4001 95.3374 10.8801C96.9908 9.3601 99.3641 8.6001 102.457 8.6001C104.591 8.6001 106.377 8.97343 107.817 9.7201C109.257 10.4668 110.324 11.4801 111.017 12.7601C111.737 14.0401 112.097 15.4668 112.097 17.0401V19.4801C112.097 20.8134 111.404 21.4801 110.017 21.4801H98.8974V22.4801C98.8974 23.5468 99.2041 24.3468 99.8174 24.8801C100.457 25.3868 101.351 25.6401 102.497 25.6401C104.231 25.6401 105.497 25.1068 106.297 24.0401C106.697 23.4801 107.097 23.2001 107.497 23.2001C107.817 23.2001 108.191 23.3201 108.617 23.5601L110.577 24.5201C111.271 24.8934 111.617 25.3201 111.617 25.8001C111.617 26.1468 111.484 26.5068 111.217 26.8801C109.697 29.3601 106.764 30.6001 102.417 30.6001ZM106.057 17.1201V16.4801C106.057 15.4668 105.751 14.7068 105.137 14.2001C104.524 13.6668 103.631 13.4001 102.457 13.4001C101.311 13.4001 100.431 13.6668 99.8174 14.2001C99.2041 14.7068 98.8974 15.4668 98.8974 16.4801V17.1201H106.057Z" fill="url(#paint3_linear_903_4792)"/>
<path d="M72.8277 38.8001C72.2943 38.8001 71.9077 38.6934 71.6677 38.4801C71.4543 38.2668 71.3477 37.8801 71.3477 37.3201V12.1601C71.3477 11.4934 71.4543 11.0134 71.6677 10.7201C71.881 10.4001 72.3077 10.1068 72.9477 9.8401C75.1077 9.01343 77.8143 8.6001 81.0676 8.6001C84.001 8.6001 86.1877 9.3201 87.6277 10.7601C89.0677 12.1734 89.7877 14.2134 89.7877 16.8801V21.9201C89.7877 24.7734 89.0143 26.9334 87.4677 28.4001C85.921 29.8668 83.6143 30.6001 80.5477 30.6001C79.641 30.6001 78.5877 30.4801 77.3877 30.2401V37.3201C77.3877 37.8801 77.281 38.2668 77.0677 38.4801C76.8543 38.6934 76.481 38.8001 75.9477 38.8001H72.8277ZM77.3877 24.9601C78.401 25.1201 79.2943 25.2001 80.0677 25.2001C81.321 25.2001 82.241 24.9334 82.8277 24.4001C83.441 23.8668 83.7477 23.0401 83.7477 21.9201V16.9201C83.7477 15.9868 83.4543 15.2668 82.8677 14.7601C82.281 14.2534 81.441 14.0001 80.3477 14.0001C79.2543 14.0001 78.3343 14.0934 77.5877 14.2801C77.4543 14.3068 77.3877 14.4001 77.3877 14.5601V24.9601Z" fill="url(#paint4_linear_903_4792)"/>
<path d="M58.2768 30.6001C54.9968 30.6001 52.5835 29.8001 51.0368 28.2001C49.4901 26.5734 48.7168 24.4134 48.7168 21.7201V17.4801C48.7168 14.6001 49.5435 12.4001 51.1968 10.8801C52.8501 9.3601 55.2235 8.6001 58.3168 8.6001C60.4501 8.6001 62.2368 8.97343 63.6768 9.7201C65.1168 10.4668 66.1835 11.4801 66.8768 12.7601C67.5968 14.0401 67.9568 15.4668 67.9568 17.0401V19.4801C67.9568 20.8134 67.2635 21.4801 65.8768 21.4801H54.7568V22.4801C54.7568 23.5468 55.0635 24.3468 55.6768 24.8801C56.3168 25.3868 57.2101 25.6401 58.3568 25.6401C60.0901 25.6401 61.3568 25.1068 62.1568 24.0401C62.5568 23.4801 62.9568 23.2001 63.3568 23.2001C63.6768 23.2001 64.0501 23.3201 64.4768 23.5601L66.4368 24.5201C67.1301 24.8934 67.4768 25.3201 67.4768 25.8001C67.4768 26.1468 67.3435 26.5068 67.0768 26.8801C65.5568 29.3601 62.6235 30.6001 58.2768 30.6001ZM61.9168 17.1201V16.4801C61.9168 15.4668 61.6101 14.7068 60.9968 14.2001C60.3835 13.6668 59.4901 13.4001 58.3168 13.4001C57.1701 13.4001 56.2901 13.6668 55.6768 14.2001C55.0635 14.7068 54.7568 15.4668 54.7568 16.4801V17.1201H61.9168Z" fill="url(#paint5_linear_903_4792)"/>
<path d="M36.2455 30.6001C32.9655 30.6001 30.5522 29.8001 29.0055 28.2001C27.4589 26.5734 26.6855 24.4134 26.6855 21.7201V17.4801C26.6855 14.6001 27.5122 12.4001 29.1655 10.8801C30.8189 9.3601 33.1922 8.6001 36.2856 8.6001C38.4189 8.6001 40.2055 8.97343 41.6455 9.7201C43.0855 10.4668 44.1522 11.4801 44.8455 12.7601C45.5656 14.0401 45.9256 15.4668 45.9256 17.0401V19.4801C45.9256 20.8134 45.2322 21.4801 43.8455 21.4801H32.7255V22.4801C32.7255 23.5468 33.0322 24.3468 33.6455 24.8801C34.2855 25.3868 35.1789 25.6401 36.3255 25.6401C38.0589 25.6401 39.3255 25.1068 40.1255 24.0401C40.5255 23.4801 40.9255 23.2001 41.3255 23.2001C41.6455 23.2001 42.0189 23.3201 42.4455 23.5601L44.4056 24.5201C45.0989 24.8934 45.4456 25.3201 45.4456 25.8001C45.4456 26.1468 45.3122 26.5068 45.0455 26.8801C43.5255 29.3601 40.5922 30.6001 36.2455 30.6001ZM39.8855 17.1201V16.4801C39.8855 15.4668 39.5789 14.7068 38.9656 14.2001C38.3522 13.6668 37.4589 13.4001 36.2856 13.4001C35.1389 13.4001 34.2589 13.6668 33.6455 14.2001C33.0322 14.7068 32.7255 15.4668 32.7255 16.4801V17.1201H39.8855Z" fill="url(#paint6_linear_903_4792)"/>
<path d="M2.14 30.0001C1.52667 30.0001 1.1 29.8801 0.86 29.6401C0.62 29.4001 0.5 28.9734 0.5 28.3601V3.2401C0.5 2.62676 0.62 2.2001 0.86 1.9601C1.1 1.7201 1.52667 1.6001 2.14 1.6001H11.5C15.26 1.6001 18.1667 2.5601 20.22 4.4801C22.2733 6.37343 23.3 9.0001 23.3 12.3601V19.2401C23.3 22.6001 22.2733 25.2401 20.22 27.1601C18.1667 29.0534 15.26 30.0001 11.5 30.0001H2.14ZM11.46 24.0801C13.22 24.0801 14.5533 23.6801 15.46 22.8801C16.3667 22.0534 16.82 20.8401 16.82 19.2401V12.3601C16.82 10.7601 16.3667 9.5601 15.46 8.7601C14.5533 7.93343 13.22 7.5201 11.46 7.5201H7.02V24.0801H11.46Z" fill="url(#paint7_linear_903_4792)"/>
<defs>
<linearGradient id="paint0_linear_903_4792" x1="-2.1663" y1="17.0001" x2="186.834" y2="17.0001" gradientUnits="userSpaceOnUse">
<stop stop-color="#4E5899"/>
<stop offset="1" stop-color="#CE70CA"/>
</linearGradient>
<linearGradient id="paint1_linear_903_4792" x1="-2.16617" y1="17" x2="186.834" y2="17" gradientUnits="userSpaceOnUse">
<stop stop-color="#4E5899"/>
<stop offset="1" stop-color="#CE70CA"/>
</linearGradient>
<linearGradient id="paint2_linear_903_4792" x1="-2.16686" y1="17.0001" x2="186.833" y2="17.0001" gradientUnits="userSpaceOnUse">
<stop stop-color="#4E5899"/>
<stop offset="1" stop-color="#CE70CA"/>
</linearGradient>
<linearGradient id="paint3_linear_903_4792" x1="-2.16649" y1="17.0001" x2="186.834" y2="17.0001" gradientUnits="userSpaceOnUse">
<stop stop-color="#4E5899"/>
<stop offset="1" stop-color="#CE70CA"/>
</linearGradient>
<linearGradient id="paint4_linear_903_4792" x1="-2.16688" y1="17.0001" x2="186.833" y2="17.0001" gradientUnits="userSpaceOnUse">
<stop stop-color="#4E5899"/>
<stop offset="1" stop-color="#CE70CA"/>
</linearGradient>
<linearGradient id="paint5_linear_903_4792" x1="-2.16649" y1="17.0001" x2="186.834" y2="17.0001" gradientUnits="userSpaceOnUse">
<stop stop-color="#4E5899"/>
<stop offset="1" stop-color="#CE70CA"/>
</linearGradient>
<linearGradient id="paint6_linear_903_4792" x1="-2.16649" y1="17.0001" x2="186.834" y2="17.0001" gradientUnits="userSpaceOnUse">
<stop stop-color="#4E5899"/>
<stop offset="1" stop-color="#CE70CA"/>
</linearGradient>
<linearGradient id="paint7_linear_903_4792" x1="-2.16641" y1="17.0001" x2="186.834" y2="17.0001" gradientUnits="userSpaceOnUse">
<stop stop-color="#4E5899"/>
<stop offset="1" stop-color="#CE70CA"/>
</linearGradient>
</defs>
</svg>
